<svg width="278" height="29" viewBox="0 0 278 29" fill="none" xmlns="http://www.w3.org/2000/svg">
<g clip-path="url(#clip0_1042_1952)">
<path d="M13.8697 0H0.547343C0.402178 0 0.26296 0.0574907 0.160313 0.159825C0.0576664 0.262159 0 0.400953 0 0.545675V26.4543C0 26.599 0.0576664 26.7378 0.160313 26.8402C0.26296 26.9425 0.402178 27 0.547343 27H13.8697C17.3929 26.9001 20.7383 25.4345 23.195 22.9147C25.6516 20.3949 27.0259 17.0194 27.0259 13.5055C27.0259 9.99149 25.6516 6.61601 23.195 4.09619C20.7383 1.57637 17.3929 0.110814 13.8697 0.0109138V0ZM15.1723 22.9293C13.1566 23.2751 11.0829 22.9724 9.25126 22.0649C7.41966 21.1574 5.92532 19.6922 4.98462 17.8816C4.04392 16.071 3.70569 14.0088 4.0189 11.9938C4.33212 9.97876 5.28053 8.11541 6.72679 6.67355C8.17305 5.2317 10.0421 4.28618 12.0633 3.97392C14.0845 3.66166 16.1529 3.99886 17.9691 4.93669C19.7852 5.87452 21.2549 7.36431 22.1651 9.19033C23.0754 11.0163 23.3791 13.0838 23.0322 15.0934C22.6946 17.049 21.7577 18.8523 20.3502 20.2555C18.9428 21.6586 17.1339 22.5927 15.1723 22.9293Z" fill="white"/>
</g>
<path d="M272.924 20.952V23.0059C272.924 23.0881 272.869 23.1429 272.787 23.1429H270.676C268.4 23.1429 267.084 22.157 267.084 19.9113V11.4765C267.084 11.3944 267.03 11.3396 266.947 11.3396H264.508C264.425 11.3396 264.37 11.2848 264.37 11.2027V9.42261C264.37 9.34046 264.425 9.28569 264.508 9.28569H266.947C267.03 9.28569 267.084 9.23092 267.084 9.14876V5.45169C267.084 5.36953 267.139 5.31476 267.222 5.31476H269.552C269.634 5.31476 269.689 5.36953 269.689 5.45169V9.14876C269.689 9.23092 269.744 9.28569 269.826 9.28569H272.787C272.869 9.28569 272.924 9.34046 272.924 9.42261V11.2027C272.924 11.2848 272.869 11.3396 272.787 11.3396H269.826C269.744 11.3396 269.689 11.3944 269.689 11.4765V19.4458C269.689 20.2947 270.073 20.8151 271.169 20.8151H272.787C272.869 20.8151 272.924 20.8698 272.924 20.952Z" fill="white"/>
<path d="M263.398 11.3396H262C259.697 11.3396 258.381 13.3388 258.381 15.4749V23.0059C258.381 23.0881 258.326 23.1429 258.244 23.1429H255.914C255.831 23.1429 255.777 23.0881 255.777 23.0059V9.42263C255.777 9.34047 255.831 9.2857 255.914 9.2857H257.97C258.052 9.2857 258.079 9.34047 258.107 9.42263L258.381 10.655C258.436 10.8193 258.6 10.7645 258.683 10.6824C259.615 9.75126 260.629 9.01184 262 9.01184H263.398C263.48 9.01184 263.535 9.06661 263.535 9.14877V11.2027C263.535 11.2849 263.48 11.3396 263.398 11.3396Z" fill="white"/>
<path d="M253.491 20.952V23.0059C253.491 23.0881 253.437 23.1429 253.354 23.1429H252.559C250.997 23.1429 250.065 22.7595 249.653 21.8831C249.599 21.7462 249.462 21.7736 249.407 21.8284C248.749 22.513 247.049 23.4167 244.527 23.4167C240.854 23.4167 239.044 21.6367 239.044 19.035C239.044 16.6525 241.046 14.8724 245.075 14.8724H248.146C248.749 14.8724 249.05 14.3521 249.05 13.9687C249.05 12.8458 248.776 11.3396 245.514 11.3396C243.156 11.3396 242.087 12.4351 242.087 13.8317C242.087 13.9139 242.032 13.9687 241.95 13.9687H239.62C239.538 13.9687 239.483 13.9139 239.483 13.8317C239.483 10.6002 242.416 9.01184 245.514 9.01184C249.297 9.01184 251.655 10.6276 251.655 13.9687V19.9114C251.655 20.3221 251.984 20.8151 252.559 20.8151H253.354C253.437 20.8151 253.491 20.8699 253.491 20.952ZM249.05 17.4466V17.0632C249.05 16.9811 248.996 16.9263 248.913 16.9263H245.075C242.17 16.9263 241.649 18.0765 241.649 19.035C241.649 20.0209 242.334 21.0889 244.527 21.0889C247.844 21.0889 248.996 19.1172 249.05 17.4466Z" fill="white"/>
<path d="M224.029 3.86334H226.359C226.441 3.86334 226.496 3.91811 226.496 4.00027V10.6276C226.496 10.7645 226.688 10.8193 226.798 10.6824C227.62 9.64173 228.964 9.01186 230.389 9.01186C234.638 9.01186 236.365 11.9147 236.365 15.4749V23.006C236.365 23.0881 236.31 23.1429 236.228 23.1429H233.898C233.816 23.1429 233.761 23.0881 233.761 23.006V15.4749C233.761 13.3936 232.829 11.3396 230.115 11.3396C227.812 11.3396 226.496 13.3388 226.496 15.4749V23.006C226.496 23.0881 226.441 23.1429 226.359 23.1429H224.029C223.947 23.1429 223.892 23.0881 223.892 23.006V4.00027C223.892 3.91811 223.947 3.86334 224.029 3.86334Z" fill="white"/>
<path d="M218.275 17.255C218.302 17.1454 218.385 17.118 218.467 17.118H220.879C220.961 17.118 221.016 17.1454 221.016 17.255C221.016 19.0624 218.851 23.4167 213.121 23.4167C207.09 23.4167 204.458 19.3089 204.458 13.5031C204.458 7.69734 207.638 3.58948 213.121 3.58948C219.097 3.58948 221.016 8.24505 221.016 9.75126C221.016 9.86081 220.961 9.88819 220.879 9.88819H218.467C218.385 9.88819 218.302 9.83342 218.275 9.75126C217.864 8.57368 216.74 5.91726 213.121 5.91726C209.283 5.91726 207.2 8.76538 207.2 13.5031C207.2 18.2408 209.283 21.089 213.121 21.089C216.411 21.089 217.836 18.7064 218.275 17.255Z" fill="white"/>
<path d="M183.845 9.2857H185.901C185.983 9.2857 186.011 9.34047 186.038 9.42263L186.312 10.655C186.34 10.8193 186.559 10.7645 186.614 10.6824C187.162 9.8608 188.368 9.01184 190.205 9.01184C194.18 9.01184 196.181 11.9147 196.181 15.4749V23.0059C196.181 23.0881 196.127 23.1429 196.044 23.1429H193.714C193.632 23.1429 193.577 23.0881 193.577 23.0059V15.4749C193.577 13.3936 192.645 11.3396 189.931 11.3396C187.628 11.3396 186.312 13.3388 186.312 15.4749V23.0059C186.312 23.0881 186.258 23.1429 186.175 23.1429H183.845C183.763 23.1429 183.708 23.0881 183.708 23.0059V9.42263C183.708 9.34047 183.763 9.2857 183.845 9.2857Z" fill="white"/>
<path d="M180.683 16.2143C180.683 20.4865 178.161 23.4167 173.884 23.4167C169.58 23.4167 167.085 20.4865 167.085 16.2143C167.085 11.9147 169.58 9.01184 173.884 9.01184C178.161 9.01184 180.683 11.9421 180.683 16.2143ZM178.078 16.2143C178.078 13.3662 176.516 11.3396 173.884 11.3396C171.28 11.3396 169.69 13.3662 169.69 16.2143C169.69 19.0624 171.28 21.0889 173.884 21.0889C176.516 21.0889 178.078 19.0624 178.078 16.2143Z" fill="white"/>
<path d="M164.065 9.42265V23.006C164.065 23.0881 164.011 23.1429 163.928 23.1429H161.598C161.516 23.1429 161.461 23.0881 161.461 23.006V9.42265C161.461 9.34049 161.516 9.28572 161.598 9.28572H163.928C164.011 9.28572 164.065 9.34049 164.065 9.42265ZM164.097 6.89705H161.356C161.274 6.89705 161.219 6.84228 161.219 6.76012V3.99417C161.219 3.91201 161.274 3.85724 161.356 3.85724H164.097C164.18 3.85724 164.234 3.91201 164.234 3.99417V6.76012C164.234 6.84228 164.18 6.89705 164.097 6.89705Z" fill="white"/>
<path d="M158.61 20.952V23.0059C158.61 23.0881 158.555 23.1429 158.473 23.1429H156.362C154.087 23.1429 152.771 22.157 152.771 19.9113V11.4765C152.771 11.3944 152.716 11.3396 152.634 11.3396H150.194C150.112 11.3396 150.057 11.2848 150.057 11.2027V9.42261C150.057 9.34046 150.112 9.28569 150.194 9.28569H152.634C152.716 9.28569 152.771 9.23092 152.771 9.14876V5.45169C152.771 5.36953 152.826 5.31476 152.908 5.31476H155.238C155.32 5.31476 155.375 5.36953 155.375 5.45169V9.14876C155.375 9.23092 155.43 9.28569 155.512 9.28569H158.473C158.555 9.28569 158.61 9.34046 158.61 9.42261V11.2027C158.61 11.2848 158.555 11.3396 158.473 11.3396H155.512C155.43 11.3396 155.375 11.3944 155.375 11.4765V19.4458C155.375 20.2947 155.759 20.8151 156.855 20.8151H158.473C158.555 20.8151 158.61 20.8698 158.61 20.952Z" fill="white"/>
<path d="M149.859 20.952V23.0059C149.859 23.0881 149.805 23.1429 149.722 23.1429H148.927C147.365 23.1429 146.433 22.7595 146.022 21.8831C145.967 21.7462 145.83 21.7736 145.775 21.8284C145.117 22.513 143.417 23.4167 140.895 23.4167C137.222 23.4167 135.412 21.6367 135.412 19.035C135.412 16.6525 137.414 14.8724 141.443 14.8724H144.514C145.117 14.8724 145.418 14.3521 145.418 13.9687C145.418 12.8458 145.144 11.3396 141.882 11.3396C139.524 11.3396 138.455 12.4351 138.455 13.8317C138.455 13.9139 138.4 13.9687 138.318 13.9687H135.988C135.906 13.9687 135.851 13.9139 135.851 13.8317C135.851 10.6002 138.784 9.01184 141.882 9.01184C145.665 9.01184 148.023 10.6276 148.023 13.9687V19.9114C148.023 20.3221 148.352 20.8151 148.927 20.8151H149.722C149.805 20.8151 149.859 20.8699 149.859 20.952ZM145.418 17.4466V17.0632C145.418 16.9811 145.364 16.9263 145.281 16.9263H141.443C138.538 16.9263 138.017 18.0765 138.017 19.035C138.017 20.0209 138.702 21.0889 140.895 21.0889C144.212 21.0889 145.364 19.1172 145.418 17.4466Z" fill="white"/>
<path d="M132.902 13.9687H130.544C130.462 13.9687 130.407 13.9139 130.407 13.8317C130.407 12.3255 129.201 11.3396 126.98 11.3396C124.924 11.3396 124.02 12.2434 124.02 13.0923C124.02 14.6533 125.994 14.6807 127.364 14.8724C130.106 15.2558 133.395 15.5023 133.395 19.0076C133.395 22.1296 130.791 23.4167 127.364 23.4167C123.197 23.4167 121.169 21.2259 121.169 18.5968C121.169 18.5147 121.224 18.4599 121.306 18.4599H123.609C123.691 18.4599 123.773 18.5147 123.773 18.5968C123.773 19.9661 125.171 21.0889 127.364 21.0889C128.762 21.0889 130.791 20.7877 130.791 19.0076C130.791 17.4466 128.516 17.3371 127.364 17.2002C124.733 16.8989 121.415 16.4881 121.415 13.0923C121.415 10.8467 123.581 9.01184 126.98 9.01184C130.352 9.01184 133.011 10.6002 133.011 13.8317C133.011 13.9139 132.984 13.9687 132.902 13.9687Z" fill="white"/>
<path d="M118.313 9.42265V23.006C118.313 23.0881 118.258 23.1429 118.176 23.1429H115.846C115.764 23.1429 115.709 23.0881 115.709 23.006V9.42265C115.709 9.34049 115.764 9.28572 115.846 9.28572H118.176C118.258 9.28572 118.313 9.34049 118.313 9.42265ZM118.407 6.89705H115.666C115.584 6.89705 115.529 6.84228 115.529 6.76012V3.99417C115.529 3.91201 115.584 3.85724 115.666 3.85724H118.407C118.49 3.85724 118.544 3.91201 118.544 3.99417V6.76012C118.544 6.84228 118.49 6.89705 118.407 6.89705Z" fill="white"/>
<path d="M99.5421 9.2857H101.598C101.68 9.2857 101.708 9.34047 101.735 9.42263L102.009 10.655C102.037 10.8193 102.256 10.7645 102.311 10.6824C102.859 9.8608 104.065 9.01184 105.902 9.01184C109.877 9.01184 111.878 11.9147 111.878 15.4749V23.0059C111.878 23.0881 111.824 23.1429 111.741 23.1429H109.411C109.329 23.1429 109.274 23.0881 109.274 23.0059V15.4749C109.274 13.3936 108.342 11.3396 105.628 11.3396C103.325 11.3396 102.009 13.3388 102.009 15.4749V23.0059C102.009 23.0881 101.955 23.1429 101.872 23.1429H99.5421C99.4599 23.1429 99.405 23.0881 99.405 23.0059V9.42263C99.405 9.34047 99.4599 9.2857 99.5421 9.2857Z" fill="white"/>
<path d="M97.1199 20.952V23.0059C97.1199 23.0881 97.065 23.1429 96.9828 23.1429H96.1878C94.6252 23.1429 93.6931 22.7595 93.2819 21.8831C93.2271 21.7462 93.09 21.7736 93.0352 21.8284C92.3772 22.513 90.6776 23.4167 88.1555 23.4167C84.482 23.4167 82.6727 21.6367 82.6727 19.035C82.6727 16.6525 84.6739 14.8724 88.7038 14.8724H91.7741C92.3772 14.8724 92.6788 14.3521 92.6788 13.9687C92.6788 12.8458 92.4047 11.3396 89.1424 11.3396C86.7848 11.3396 85.7157 12.4351 85.7157 13.8317C85.7157 13.9139 85.6608 13.9687 85.5786 13.9687H83.2484C83.1662 13.9687 83.1114 13.9139 83.1114 13.8317C83.1114 10.6002 86.0446 9.01184 89.1424 9.01184C92.9255 9.01184 95.2831 10.6276 95.2831 13.9687V19.9114C95.2831 20.3221 95.6121 20.8151 96.1878 20.8151H96.9828C97.065 20.8151 97.1199 20.8699 97.1199 20.952ZM92.6788 17.4466V17.0632C92.6788 16.9811 92.624 16.9263 92.5417 16.9263H88.7038C85.7979 16.9263 85.2771 18.0765 85.2771 19.035C85.2771 20.0209 85.9624 21.0889 88.1555 21.0889C91.4726 21.0889 92.624 19.1172 92.6788 17.4466Z" fill="white"/>
<path d="M69.7963 24.7586C70.0156 25.3885 71.0025 26.5113 73.2779 26.5113C76.1564 26.5113 77.1707 24.5395 77.1707 22.6225V21.8831C77.1707 21.7736 77.0062 21.664 76.8965 21.8284C76.595 22.2118 74.8953 23.4167 72.9764 23.4167C69.2481 23.4167 66.4518 20.4865 66.4518 16.2143C66.4518 11.9421 68.9739 9.01184 72.9764 9.01184C74.347 9.01184 76.1289 9.77864 76.8965 10.5454C76.9788 10.6276 77.1158 10.6824 77.1707 10.5181L77.4448 9.42263C77.4722 9.34047 77.4996 9.2857 77.5819 9.2857H79.6379C79.7202 9.2857 79.775 9.34047 79.775 9.42263V22.6225C79.775 26.3196 77.1433 28.8391 73.2779 28.8391C69.906 28.8391 67.3565 26.9495 67.1372 24.7586C67.1372 24.6765 67.192 24.6217 67.2743 24.6217H69.6593C69.7415 24.6217 69.7689 24.6765 69.7963 24.7586ZM69.0562 16.2143C69.0562 19.0624 70.6188 21.0889 73.2505 21.0889C75.7452 21.0889 77.1707 19.0624 77.1707 16.2143C77.1707 13.3662 75.7452 11.3396 73.2505 11.3396C70.6188 11.3396 69.0562 13.3662 69.0562 16.2143Z" fill="white"/>
<path d="M65.477 11.3396H64.0788C61.7761 11.3396 60.4602 13.3388 60.4602 15.4749V23.0059C60.4602 23.0881 60.4054 23.1429 60.3231 23.1429H57.993C57.9107 23.1429 57.8559 23.0881 57.8559 23.0059V9.42263C57.8559 9.34047 57.9107 9.2857 57.993 9.2857H60.049C60.1312 9.2857 60.1587 9.34047 60.1861 9.42263L60.4602 10.655C60.515 10.8193 60.6795 10.7645 60.7618 10.6824C61.6938 9.75126 62.7082 9.01184 64.0788 9.01184H65.477C65.5592 9.01184 65.614 9.06661 65.614 9.14877V11.2027C65.614 11.2849 65.5592 11.3396 65.477 11.3396Z" fill="white"/>
<path d="M54.8369 13.5031C54.8369 19.3089 51.9585 23.4167 46.2015 23.4167C40.4446 23.4167 37.5388 19.3089 37.5388 13.5031C37.5388 7.69734 40.4446 3.58948 46.2015 3.58948C51.9585 3.58948 54.8369 7.69734 54.8369 13.5031ZM46.2015 21.089C50.0395 21.089 52.1229 18.2408 52.1229 13.5031C52.1229 8.76538 50.0395 5.91726 46.2015 5.91726C42.3636 5.91726 40.2801 8.76538 40.2801 13.5031C40.2801 18.2408 42.3636 21.089 46.2015 21.089Z" fill="white"/>
<defs>
<clipPath id="clip0_1042_1952">
<rect width="27.0278" height="27" fill="white"/>
</clipPath>
</defs>
</svg>
